# MagicaVoxel @ ephtracy

# material
mtllib Crate.mtl
usemtl palette

# normals
vn -1 0 0
vn 1 0 0
vn 0 0 1
vn 0 0 -1
vn 0 -1 0
vn 0 1 0

# texcoords
vt 0.373047 0.5
vt 0.841797 0.5
vt 0.994141 0.5

# verts
v -16 0 16
v -16 0 -16
v -16 3 13
v -16 3 -13
v -16 29 13
v -16 29 -13
v -16 31 3
v -16 31 -4
v -16 32 16
v -16 32 3
v -16 32 -4
v -16 32 -16
v -15 3 13
v -15 3 -13
v -15 29 13
v -15 29 -13
v 13 0 13
v 13 0 -13
v 13 1 13
v 13 1 -13
v 13 3 16
v 13 3 15
v 13 3 -15
v 13 3 -16
v 13 5 15
v 13 8 15
v 13 29 16
v 13 29 15
v 13 29 -15
v 13 29 -16
v 13 31 13
v 13 31 3
v 13 31 2
v 13 31 -0
v 13 31 -1
v 13 31 -3
v 13 31 -4
v 13 31 -13
v 13 32 13
v 13 32 3
v 13 32 2
v 13 32 -0
v 13 32 -1
v 13 32 -3
v 13 32 -4
v 13 32 -13
v -13 0 13
v -13 0 -13
v -13 1 13
v -13 1 -13
v -13 3 16
v -13 3 15
v -13 3 -15
v -13 3 -16
v -13 29 16
v -13 29 15
v -13 29 -15
v -13 29 -16
v -13 31 13
v -13 31 -1
v -13 31 -2
v -13 31 -3
v -13 31 -4
v -13 31 -13
v -13 32 13
v -13 32 -1
v -13 32 -2
v -13 32 -3
v -13 32 -4
v -13 32 -13
v 15 3 13
v 15 3 -13
v 15 29 13
v 15 29 -13
v 16 0 16
v 16 0 -16
v 16 3 13
v 16 3 -13
v 16 29 13
v 16 29 -13
v 16 31 3
v 16 31 2
v 16 31 -0
v 16 31 -1
v 16 31 -3
v 16 31 -4
v 16 32 16
v 16 32 3
v 16 32 2
v 16 32 -0
v 16 32 -1
v 16 32 -3
v 16 32 -4
v 16 32 -16
v -16 0 16
v -16 32 16
v -13 3 16
v -13 29 16
v 13 3 16
v 13 29 16
v 16 0 16
v 16 32 16
v -13 3 15
v -13 29 15
v -12 3 15
v -12 4 15
v -12 5 15
v -12 8 15
v -11 6 15
v -11 7 15
v -11 13 15
v -11 14 15
v -10 4 15
v -10 5 15
v -10 9 15
v -10 13 15
v -10 19 15
v -10 20 15
v -9 3 15
v -9 6 15
v -9 7 15
v -9 8 15
v -9 9 15
v -9 13 15
v -9 19 15
v -9 20 15
v -9 21 15
v -8 3 15
v -8 4 15
v -8 7 15
v -8 8 15
v -8 13 15
v -8 14 15
v -8 17 15
v -8 20 15
v -8 21 15
v -8 22 15
v -7 4 15
v -7 7 15
v -7 9 15
v -7 14 15
v -7 17 15
v -7 20 15
v -7 21 15
v -7 22 15
v -6 4 15
v -6 7 15
v -6 9 15
v -6 11 15
v -6 12 15
v -6 14 15
v -6 19 15
v -6 20 15
v -6 21 15
v -5 3 15
v -5 4 15
v -5 7 15
v -5 8 15
v -5 9 15
v -5 11 15
v -5 12 15
v -5 14 15
v -5 19 15
v -5 20 15
v -4 3 15
v -4 8 15
v -4 9 15
v -4 14 15
v -3 4 15
v -3 7 15
v -3 9 15
v -3 10 15
v -3 13 15
v -3 14 15
v -3 19 15
v -3 20 15
v -2 3 15
v -2 4 15
v -2 7 15
v -2 8 15
v -2 10 15
v -2 13 15
v -2 19 15
v -2 20 15
v -2 21 15
v -1 4 15
v -1 7 15
v -1 10 15
v -1 13 15
v -1 17 15
v -1 20 15
v -1 21 15
v -1 22 15
v 0 3 15
v 0 8 15
v 0 9 15
v 0 10 15
v 0 13 15
v 0 14 15
v 0 17 15
v 0 20 15
v 0 21 15
v 0 22 15
v 1 4 15
v 1 5 15
v 1 6 15
v 1 7 15
v 1 9 15
v 1 10 15
v 1 11 15
v 1 14 15
v 1 19 15
v 1 20 15
v 1 21 15
v 2 12 15
v 2 13 15
v 2 19 15
v 2 20 15
v 3 3 15
v 3 4 15
v 3 5 15
v 3 6 15
v 3 7 15
v 3 8 15
v 3 10 15
v 3 11 15
v 4 9 15
v 4 12 15
v 4 13 15
v 4 14 15
v 4 19 15
v 4 20 15
v 5 4 15
v 5 8 15
v 5 19 15
v 5 20 15
v 5 21 15
v 6 3 15
v 6 4 15
v 6 8 15
v 6 17 15
v 6 20 15
v 6 21 15
v 6 22 15
v 7 17 15
v 7 20 15
v 7 21 15
v 7 22 15
v 8 3 15
v 8 4 15
v 8 8 15
v 8 19 15
v 8 20 15
v 8 21 15
v 9 4 15
v 9 8 15
v 9 19 15
v 9 20 15
v 10 3 15
v 10 8 15
v 11 3 15
v 11 5 15
v 11 6 15
v 11 7 15
v 12 6 15
v 12 7 15
v 13 3 15
v 13 5 15
v 13 8 15
v 13 29 15
v -16 3 -13
v -16 29 -13
v -15 3 -13
v -15 29 -13
v -13 0 -13
v -13 1 -13
v -13 31 -13
v -13 32 -13
v 13 0 -13
v 13 1 -13
v 13 31 -13
v 13 32 -13
v 15 3 -13
v 15 29 -13
v 16 3 -13
v 16 29 -13
v -16 3 13
v -16 29 13
v -15 3 13
v -15 29 13
v -13 0 13
v -13 1 13
v -13 31 13
v -13 32 13
v 13 0 13
v 13 1 13
v 13 31 13
v 13 32 13
v 15 3 13
v 15 29 13
v 16 3 13
v 16 29 13
v -13 3 -15
v -13 29 -15
v 13 3 -15
v 13 29 -15
v -16 0 -16
v -16 32 -16
v -13 3 -16
v -13 29 -16
v 13 3 -16
v 13 29 -16
v 16 0 -16
v 16 32 -16
v -16 0 16
v 16 0 16
v -13 0 13
v 13 0 13
v -13 0 -13
v 13 0 -13
v -16 0 -16
v 16 0 -16
v -13 1 13
v 13 1 13
v -13 1 -13
v 13 1 -13
v -13 29 16
v 13 29 16
v -13 29 15
v 13 29 15
v -16 29 13
v -15 29 13
v 15 29 13
v 16 29 13
v -16 29 -13
v -15 29 -13
v 15 29 -13
v 16 29 -13
v -13 29 -15
v 13 29 -15
v -13 29 -16
v 13 29 -16
v -13 3 16
v 13 3 16
v -13 3 15
v -12 3 15
v -9 3 15
v -8 3 15
v -5 3 15
v -4 3 15
v -2 3 15
v 0 3 15
v 3 3 15
v 6 3 15
v 8 3 15
v 10 3 15
v 11 3 15
v 13 3 15
v -16 3 13
v -15 3 13
v 15 3 13
v 16 3 13
v -16 3 -13
v -15 3 -13
v 15 3 -13
v 16 3 -13
v -13 3 -15
v 13 3 -15
v -13 3 -16
v 13 3 -16
v -13 31 13
v 13 31 13
v -11 31 3
v -10 31 3
v -7 31 3
v -5 31 3
v -3 31 3
v -2 31 3
v -1 31 3
v 3 31 3
v 4 31 3
v 7 31 3
v 8 31 3
v 11 31 3
v 12 31 3
v 13 31 3
v -8 31 2
v -7 31 2
v -6 31 2
v 0 31 2
v 2 31 2
v 4 31 2
v 5 31 2
v 6 31 2
v 7 31 2
v 9 31 2
v 11 31 2
v 13 31 2
v -9 31 1
v -8 31 1
v -7 31 1
v -10 31 -0
v -9 31 -0
v -8 31 -0
v -5 31 -0
v -3 31 -0
v 1 31 -0
v 2 31 -0
v 13 31 -0
v -13 31 -1
v -12 31 -1
v -9 31 -1
v -7 31 -1
v -5 31 -1
v -3 31 -1
v 1 31 -1
v 3 31 -1
v 13 31 -1
v -13 31 -2
v -12 31 -2
v -10 31 -2
v -8 31 -2
v -5 31 -2
v -3 31 -2
v -13 31 -3
v -12 31 -3
v -10 31 -3
v -8 31 -3
v -6 31 -3
v -5 31 -3
v -3 31 -3
v -2 31 -3
v 0 31 -3
v 3 31 -3
v 4 31 -3
v 5 31 -3
v 6 31 -3
v 7 31 -3
v 13 31 -3
v -13 31 -4
v -12 31 -4
v -11 31 -4
v -7 31 -4
v -5 31 -4
v -3 31 -4
v -1 31 -4
v 3 31 -4
v 4 31 -4
v 7 31 -4
v 8 31 -4
v 9 31 -4
v 12 31 -4
v 13 31 -4
v -13 31 -13
v 13 31 -13
v -16 32 16
v 16 32 16
v -13 32 13
v 13 32 13
v -16 32 3
v -15 32 3
v 13 32 3
v 16 32 3
v 13 32 2
v 16 32 2
v 13 32 -0
v 16 32 -0
v -15 32 -1
v -13 32 -1
v 13 32 -1
v 16 32 -1
v -15 32 -2
v -13 32 -2
v -15 32 -3
v -13 32 -3
v 13 32 -3
v 16 32 -3
v -16 32 -4
v -13 32 -4
v 13 32 -4
v 16 32 -4
v -13 32 -13
v 13 32 -13
v -16 32 -16
v 16 32 -16

# faces
f 3/1/1 2/1/1 1/1/1
f 4/1/1 2/1/1 3/1/1
f 5/1/1 3/1/1 1/1/1
f 6/1/1 2/1/1 4/1/1
f 7/1/1 6/1/1 5/1/1
f 8/1/1 6/1/1 7/1/1
f 9/1/1 5/1/1 1/1/1
f 9/1/1 7/1/1 5/1/1
f 10/2/1 8/2/1 7/2/1
f 10/1/1 7/1/1 9/1/1
f 11/1/1 6/1/1 8/1/1
f 11/2/1 8/2/1 10/2/1
f 12/1/1 2/1/1 6/1/1
f 12/1/1 6/1/1 11/1/1
f 15/1/1 14/1/1 13/1/1
f 16/1/1 14/1/1 15/1/1
f 19/1/1 18/1/1 17/1/1
f 20/1/1 18/1/1 19/1/1
f 25/1/1 22/1/1 21/1/1
f 26/1/1 25/1/1 21/1/1
f 27/1/1 26/1/1 21/1/1
f 28/1/1 26/1/1 27/1/1
f 29/1/1 24/1/1 23/1/1
f 30/1/1 24/1/1 29/1/1
f 39/1/1 32/1/1 31/1/1
f 40/2/1 33/2/1 32/2/1
f 40/1/1 32/1/1 39/1/1
f 41/1/1 34/1/1 33/1/1
f 41/2/1 33/2/1 40/2/1
f 42/2/1 35/2/1 34/2/1
f 42/1/1 34/1/1 41/1/1
f 43/1/1 36/1/1 35/1/1
f 43/2/1 35/2/1 42/2/1
f 44/2/1 37/2/1 36/2/1
f 44/1/1 36/1/1 43/1/1
f 45/1/1 38/1/1 37/1/1
f 45/2/1 37/2/1 44/2/1
f 46/1/1 38/1/1 45/1/1
f 47/1/2 48/1/2 49/1/2
f 49/1/2 48/1/2 50/1/2
f 51/1/2 52/1/2 55/1/2
f 55/1/2 52/1/2 56/1/2
f 53/1/2 54/1/2 57/1/2
f 57/1/2 54/1/2 58/1/2
f 59/1/2 60/1/2 65/1/2
f 60/2/2 61/2/2 66/2/2
f 65/1/2 60/1/2 66/1/2
f 61/1/2 62/1/2 67/1/2
f 66/2/2 61/2/2 67/2/2
f 62/2/2 63/2/2 68/2/2
f 67/1/2 62/1/2 68/1/2
f 63/1/2 64/1/2 69/1/2
f 68/2/2 63/2/2 69/2/2
f 69/1/2 64/1/2 70/1/2
f 71/1/2 72/1/2 73/1/2
f 73/1/2 72/1/2 74/1/2
f 75/1/2 76/1/2 77/1/2
f 77/1/2 76/1/2 78/1/2
f 75/1/2 77/1/2 79/1/2
f 78/1/2 76/1/2 80/1/2
f 79/1/2 80/1/2 81/1/2
f 81/1/2 80/1/2 82/1/2
f 82/1/2 80/1/2 83/1/2
f 83/1/2 80/1/2 84/1/2
f 84/1/2 80/1/2 85/1/2
f 85/1/2 80/1/2 86/1/2
f 75/1/2 79/1/2 87/1/2
f 79/1/2 81/1/2 87/1/2
f 81/2/2 82/2/2 88/2/2
f 87/1/2 81/1/2 88/1/2
f 82/1/2 83/1/2 89/1/2
f 88/2/2 82/2/2 89/2/2
f 83/2/2 84/2/2 90/2/2
f 89/1/2 83/1/2 90/1/2
f 84/1/2 85/1/2 91/1/2
f 90/2/2 84/2/2 91/2/2
f 85/2/2 86/2/2 92/2/2
f 91/1/2 85/1/2 92/1/2
f 86/1/2 80/1/2 93/1/2
f 92/2/2 86/2/2 93/2/2
f 80/1/2 76/1/2 94/1/2
f 93/1/2 80/1/2 94/1/2
f 97/1/3 96/1/3 95/1/3
f 98/1/3 96/1/3 97/1/3
f 99/1/3 97/1/3 95/1/3
f 100/1/3 96/1/3 98/1/3
f 101/1/3 99/1/3 95/1/3
f 101/1/3 100/1/3 99/1/3
f 102/1/3 96/1/3 100/1/3
f 102/1/3 100/1/3 101/1/3
f 105/1/3 104/1/3 103/1/3
f 106/1/3 104/1/3 105/1/3
f 107/1/3 104/1/3 106/1/3
f 108/1/3 104/1/3 107/1/3
f 109/3/3 108/3/3 107/3/3
f 110/3/3 108/3/3 109/3/3
f 111/1/3 104/1/3 108/1/3
f 112/1/3 104/1/3 111/1/3
f 113/3/3 106/3/3 105/3/3
f 113/1/3 107/1/3 106/1/3
f 114/3/3 109/3/3 107/3/3
f 114/1/3 107/1/3 113/1/3
f 115/1/3 111/1/3 108/1/3
f 116/3/3 112/3/3 111/3/3
f 116/1/3 111/1/3 115/1/3
f 117/1/3 104/1/3 112/1/3
f 118/1/3 104/1/3 117/1/3
f 119/3/3 113/3/3 105/3/3
f 119/3/3 114/3/3 113/3/3
f 120/1/3 110/1/3 109/1/3
f 120/3/3 114/3/3 119/3/3
f 120/3/3 109/3/3 114/3/3
f 121/3/3 108/3/3 110/3/3
f 121/1/3 110/1/3 120/1/3
f 122/1/3 115/1/3 108/1/3
f 122/3/3 108/3/3 121/3/3
f 123/3/3 116/3/3 115/3/3
f 123/1/3 115/1/3 122/1/3
f 124/3/3 112/3/3 116/3/3
f 124/3/3 116/3/3 123/3/3
f 125/1/3 117/1/3 112/1/3
f 125/3/3 118/3/3 117/3/3
f 126/1/3 104/1/3 118/1/3
f 126/3/3 118/3/3 125/3/3
f 127/1/3 104/1/3 126/1/3
f 128/1/3 123/1/3 122/1/3
f 128/1/3 121/1/3 120/1/3
f 128/1/3 120/1/3 119/1/3
f 128/1/3 124/1/3 123/1/3
f 128/1/3 122/1/3 121/1/3
f 129/1/3 124/1/3 128/1/3
f 130/1/3 124/1/3 129/1/3
f 131/1/3 124/1/3 130/1/3
f 132/3/3 112/3/3 124/3/3
f 132/1/3 124/1/3 131/1/3
f 133/1/3 126/1/3 125/1/3
f 133/3/3 112/3/3 132/3/3
f 133/1/3 125/1/3 112/1/3
f 134/1/3 126/1/3 133/1/3
f 135/3/3 127/3/3 126/3/3
f 135/1/3 126/1/3 134/1/3
f 136/1/3 104/1/3 127/1/3
f 136/3/3 127/3/3 135/3/3
f 137/1/3 104/1/3 136/1/3
f 138/1/3 130/1/3 129/1/3
f 138/3/3 129/3/3 128/3/3
f 139/3/3 131/3/3 130/3/3
f 139/1/3 130/1/3 138/1/3
f 140/1/3 134/1/3 133/1/3
f 140/1/3 132/1/3 131/1/3
f 140/1/3 133/1/3 132/1/3
f 141/1/3 134/1/3 140/1/3
f 142/3/3 135/3/3 134/3/3
f 142/1/3 134/1/3 141/1/3
f 142/3/3 137/3/3 136/3/3
f 142/3/3 136/3/3 135/3/3
f 143/3/3 137/3/3 142/3/3
f 144/3/3 137/3/3 143/3/3
f 145/1/3 104/1/3 137/1/3
f 145/3/3 137/3/3 144/3/3
f 146/3/3 139/3/3 138/3/3
f 146/3/3 138/3/3 128/3/3
f 147/3/3 131/3/3 139/3/3
f 147/3/3 139/3/3 146/3/3
f 148/3/3 141/3/3 140/3/3
f 148/1/3 140/1/3 131/1/3
f 149/3/3 141/3/3 148/3/3
f 150/3/3 141/3/3 149/3/3
f 151/1/3 142/1/3 141/1/3
f 151/3/3 141/3/3 150/3/3
f 151/1/3 143/1/3 142/1/3
f 152/1/3 143/1/3 151/1/3
f 153/3/3 144/3/3 143/3/3
f 153/1/3 143/1/3 152/1/3
f 154/1/3 145/1/3 144/1/3
f 154/3/3 144/3/3 153/3/3
f 155/3/3 146/3/3 128/3/3
f 156/1/3 147/1/3 146/1/3
f 156/3/3 146/3/3 155/3/3
f 157/3/3 131/3/3 147/3/3
f 157/1/3 147/1/3 156/1/3
f 158/1/3 149/1/3 148/1/3
f 158/3/3 131/3/3 157/3/3
f 158/1/3 148/1/3 131/1/3
f 159/1/3 149/1/3 158/1/3
f 160/3/3 150/3/3 149/3/3
f 160/1/3 149/1/3 159/1/3
f 161/1/3 152/1/3 151/1/3
f 161/3/3 150/3/3 160/3/3
f 161/1/3 151/1/3 150/1/3
f 162/1/3 152/1/3 161/1/3
f 163/3/3 153/3/3 152/3/3
f 163/1/3 152/1/3 162/1/3
f 164/1/3 154/1/3 153/1/3
f 164/3/3 153/3/3 163/3/3
f 165/1/3 156/1/3 155/1/3
f 165/1/3 159/1/3 158/1/3
f 165/1/3 157/1/3 156/1/3
f 165/1/3 158/1/3 157/1/3
f 166/1/3 159/1/3 165/1/3
f 167/3/3 160/3/3 159/3/3
f 167/1/3 159/1/3 166/1/3
f 167/3/3 162/3/3 161/3/3
f 167/3/3 161/3/3 160/3/3
f 168/1/3 164/1/3 163/1/3
f 168/3/3 162/3/3 167/3/3
f 168/1/3 163/1/3 162/1/3
f 169/3/3 166/3/3 165/3/3
f 170/3/3 166/3/3 169/3/3
f 171/1/3 167/1/3 166/1/3
f 171/1/3 168/1/3 167/1/3
f 172/1/3 168/1/3 171/1/3
f 173/1/3 168/1/3 172/1/3
f 174/1/3 164/1/3 168/1/3
f 174/1/3 168/1/3 173/1/3
f 175/1/3 164/1/3 174/1/3
f 176/1/3 154/1/3 164/1/3
f 176/1/3 164/1/3 175/1/3
f 177/3/3 169/3/3 165/3/3
f 178/1/3 170/1/3 169/1/3
f 178/3/3 169/3/3 177/3/3
f 179/3/3 166/3/3 170/3/3
f 179/1/3 170/1/3 178/1/3
f 180/1/3 171/1/3 166/1/3
f 180/3/3 166/3/3 179/3/3
f 181/1/3 173/1/3 172/1/3
f 181/3/3 172/3/3 171/3/3
f 182/3/3 174/3/3 173/3/3
f 182/1/3 173/1/3 181/1/3
f 183/1/3 175/1/3 174/1/3
f 183/3/3 176/3/3 175/3/3
f 184/1/3 154/1/3 176/1/3
f 184/3/3 176/3/3 183/3/3
f 185/1/3 145/1/3 154/1/3
f 185/1/3 154/1/3 184/1/3
f 186/1/3 178/1/3 177/1/3
f 186/3/3 179/3/3 178/3/3
f 187/1/3 180/1/3 179/1/3
f 187/3/3 179/3/3 186/3/3
f 188/3/3 181/3/3 171/3/3
f 188/3/3 182/3/3 181/3/3
f 189/3/3 174/3/3 182/3/3
f 189/3/3 182/3/3 188/3/3
f 190/1/3 184/1/3 183/1/3
f 190/1/3 183/1/3 174/1/3
f 191/3/3 185/3/3 184/3/3
f 191/1/3 184/1/3 190/1/3
f 192/1/3 145/1/3 185/1/3
f 192/3/3 185/3/3 191/3/3
f 193/1/3 104/1/3 145/1/3
f 193/1/3 145/1/3 192/1/3
f 194/1/3 186/1/3 177/1/3
f 194/1/3 187/1/3 186/1/3
f 195/1/3 171/1/3 180/1/3
f 195/1/3 187/1/3 194/1/3
f 195/1/3 180/1/3 187/1/3
f 196/3/3 188/3/3 171/3/3
f 196/1/3 171/1/3 195/1/3
f 197/1/3 189/1/3 188/1/3
f 197/3/3 188/3/3 196/3/3
f 198/3/3 174/3/3 189/3/3
f 198/1/3 189/1/3 197/1/3
f 199/1/3 190/1/3 174/1/3
f 199/3/3 174/3/3 198/3/3
f 200/3/3 192/3/3 191/3/3
f 200/1/3 190/1/3 199/1/3
f 200/3/3 191/3/3 190/3/3
f 200/3/3 193/3/3 192/3/3
f 201/3/3 193/3/3 200/3/3
f 202/3/3 193/3/3 201/3/3
f 203/1/3 104/1/3 193/1/3
f 203/3/3 193/3/3 202/3/3
f 204/3/3 195/3/3 194/3/3
f 205/3/3 195/3/3 204/3/3
f 206/3/3 195/3/3 205/3/3
f 207/3/3 195/3/3 206/3/3
f 208/1/3 197/1/3 196/1/3
f 208/1/3 199/1/3 198/1/3
f 208/1/3 196/1/3 195/1/3
f 208/1/3 198/1/3 197/1/3
f 208/1/3 200/1/3 199/1/3
f 208/1/3 201/1/3 200/1/3
f 209/1/3 201/1/3 208/1/3
f 210/1/3 201/1/3 209/1/3
f 211/1/3 201/1/3 210/1/3
f 212/1/3 201/1/3 211/1/3
f 213/3/3 202/3/3 201/3/3
f 213/1/3 201/1/3 212/1/3
f 214/1/3 203/1/3 202/1/3
f 214/3/3 202/3/3 213/3/3
f 215/3/3 211/3/3 210/3/3
f 216/3/3 211/3/3 215/3/3
f 217/1/3 212/1/3 211/1/3
f 217/3/3 213/3/3 212/3/3
f 218/1/3 214/1/3 213/1/3
f 218/3/3 213/3/3 217/3/3
f 219/3/3 204/3/3 194/3/3
f 220/1/3 205/1/3 204/1/3
f 220/3/3 204/3/3 219/3/3
f 221/3/3 206/3/3 205/3/3
f 221/1/3 205/1/3 220/1/3
f 222/1/3 207/1/3 206/1/3
f 222/3/3 206/3/3 221/3/3
f 223/3/3 195/3/3 207/3/3
f 223/1/3 207/1/3 222/1/3
f 224/1/3 208/1/3 195/1/3
f 224/3/3 195/3/3 223/3/3
f 225/3/3 209/3/3 208/3/3
f 225/1/3 210/1/3 209/1/3
f 226/3/3 215/3/3 210/3/3
f 226/1/3 210/1/3 225/1/3
f 227/1/3 222/1/3 221/1/3
f 227/1/3 221/1/3 220/1/3
f 227/3/3 226/3/3 225/3/3
f 227/1/3 220/1/3 219/1/3
f 227/3/3 225/3/3 208/3/3
f 227/1/3 223/1/3 222/1/3
f 227/1/3 208/1/3 224/1/3
f 227/1/3 224/1/3 223/1/3
f 228/3/3 215/3/3 226/3/3
f 228/3/3 226/3/3 227/3/3
f 228/1/3 216/1/3 215/1/3
f 229/3/3 211/3/3 216/3/3
f 229/1/3 216/1/3 228/1/3
f 230/1/3 218/1/3 217/1/3
f 230/3/3 211/3/3 229/3/3
f 230/1/3 217/1/3 211/1/3
f 231/1/3 218/1/3 230/1/3
f 232/1/3 214/1/3 218/1/3
f 232/1/3 218/1/3 231/1/3
f 233/1/3 227/1/3 219/1/3
f 233/1/3 229/1/3 228/1/3
f 233/1/3 228/1/3 227/1/3
f 233/1/3 230/1/3 229/1/3
f 233/1/3 231/1/3 230/1/3
f 234/1/3 231/1/3 233/1/3
f 235/3/3 232/3/3 231/3/3
f 235/1/3 231/1/3 234/1/3
f 236/1/3 214/1/3 232/1/3
f 236/3/3 232/3/3 235/3/3
f 237/1/3 203/1/3 214/1/3
f 237/1/3 214/1/3 236/1/3
f 238/1/3 233/1/3 219/1/3
f 239/3/3 234/3/3 233/3/3
f 239/1/3 233/1/3 238/1/3
f 240/1/3 235/1/3 234/1/3
f 240/3/3 234/3/3 239/3/3
f 240/1/3 236/1/3 235/1/3
f 241/1/3 236/1/3 240/1/3
f 242/3/3 237/3/3 236/3/3
f 242/1/3 236/1/3 241/1/3
f 243/1/3 203/1/3 237/1/3
f 243/3/3 237/3/3 242/3/3
f 244/1/3 104/1/3 203/1/3
f 244/1/3 203/1/3 243/1/3
f 245/3/3 243/3/3 242/3/3
f 245/1/3 241/1/3 240/1/3
f 245/3/3 244/3/3 243/3/3
f 245/1/3 240/1/3 239/1/3
f 245/3/3 242/3/3 241/3/3
f 246/3/3 244/3/3 245/3/3
f 247/3/3 244/3/3 246/3/3
f 248/1/3 104/1/3 244/1/3
f 248/3/3 244/3/3 247/3/3
f 249/3/3 239/3/3 238/3/3
f 250/1/3 245/1/3 239/1/3
f 250/3/3 239/3/3 249/3/3
f 250/1/3 246/1/3 245/1/3
f 251/1/3 246/1/3 250/1/3
f 252/1/3 246/1/3 251/1/3
f 253/3/3 247/3/3 246/3/3
f 253/1/3 246/1/3 252/1/3
f 254/1/3 248/1/3 247/1/3
f 254/3/3 247/3/3 253/3/3
f 255/1/3 250/1/3 249/1/3
f 255/3/3 251/3/3 250/3/3
f 256/1/3 252/1/3 251/1/3
f 256/3/3 251/3/3 255/3/3
f 257/3/3 253/3/3 252/3/3
f 257/1/3 252/1/3 256/1/3
f 258/1/3 254/1/3 253/1/3
f 258/3/3 253/3/3 257/3/3
f 259/1/3 255/1/3 249/1/3
f 259/1/3 256/1/3 255/1/3
f 259/1/3 258/1/3 257/1/3
f 259/1/3 257/1/3 256/1/3
f 260/1/3 258/1/3 259/1/3
f 261/3/3 260/3/3 259/3/3
f 262/3/3 260/3/3 261/3/3
f 263/3/3 260/3/3 262/3/3
f 264/3/3 260/3/3 263/3/3
f 265/3/3 263/3/3 262/3/3
f 265/1/3 264/1/3 263/1/3
f 266/3/3 260/3/3 264/3/3
f 266/1/3 264/1/3 265/1/3
f 267/1/3 262/1/3 261/1/3
f 268/3/3 265/3/3 262/3/3
f 268/1/3 262/1/3 267/1/3
f 268/3/3 266/3/3 265/3/3
f 269/1/3 258/1/3 260/1/3
f 269/3/3 266/3/3 268/3/3
f 269/3/3 260/3/3 266/3/3
f 270/1/3 254/1/3 258/1/3
f 270/1/3 258/1/3 269/1/3
f 270/1/3 104/1/3 248/1/3
f 270/1/3 248/1/3 254/1/3
f 273/1/3 272/1/3 271/1/3
f 274/1/3 272/1/3 273/1/3
f 279/1/3 276/1/3 275/1/3
f 280/1/3 276/1/3 279/1/3
f 281/1/3 278/1/3 277/1/3
f 282/1/3 278/1/3 281/1/3
f 285/1/3 284/1/3 283/1/3
f 286/1/3 284/1/3 285/1/3
f 287/1/4 288/1/4 289/1/4
f 289/1/4 288/1/4 290/1/4
f 291/1/4 292/1/4 295/1/4
f 295/1/4 292/1/4 296/1/4
f 293/1/4 294/1/4 297/1/4
f 297/1/4 294/1/4 298/1/4
f 299/1/4 300/1/4 301/1/4
f 301/1/4 300/1/4 302/1/4
f 303/1/4 304/1/4 305/1/4
f 305/1/4 304/1/4 306/1/4
f 307/1/4 308/1/4 309/1/4
f 309/1/4 308/1/4 310/1/4
f 307/1/4 309/1/4 311/1/4
f 310/1/4 308/1/4 312/1/4
f 307/1/4 311/1/4 313/1/4
f 311/1/4 312/1/4 313/1/4
f 312/1/4 308/1/4 314/1/4
f 313/1/4 312/1/4 314/1/4
f 317/1/5 316/1/5 315/1/5
f 318/1/5 316/1/5 317/1/5
f 319/1/5 317/1/5 315/1/5
f 320/1/5 316/1/5 318/1/5
f 321/1/5 319/1/5 315/1/5
f 321/1/5 320/1/5 319/1/5
f 322/1/5 316/1/5 320/1/5
f 322/1/5 320/1/5 321/1/5
f 325/1/5 324/1/5 323/1/5
f 326/1/5 324/1/5 325/1/5
f 329/1/5 328/1/5 327/1/5
f 330/1/5 328/1/5 329/1/5
f 335/1/5 332/1/5 331/1/5
f 336/1/5 332/1/5 335/1/5
f 337/1/5 334/1/5 333/1/5
f 338/1/5 334/1/5 337/1/5
f 341/1/5 340/1/5 339/1/5
f 342/1/5 340/1/5 341/1/5
f 343/1/6 344/1/6 345/1/6
f 345/1/6 344/1/6 346/1/6
f 346/1/6 344/1/6 347/1/6
f 347/1/6 344/1/6 348/1/6
f 348/1/6 344/1/6 349/1/6
f 349/1/6 344/1/6 350/1/6
f 350/1/6 344/1/6 351/1/6
f 351/1/6 344/1/6 352/1/6
f 352/1/6 344/1/6 353/1/6
f 353/1/6 344/1/6 354/1/6
f 354/1/6 344/1/6 355/1/6
f 355/1/6 344/1/6 356/1/6
f 356/1/6 344/1/6 357/1/6
f 357/1/6 344/1/6 358/1/6
f 359/1/6 360/1/6 363/1/6
f 363/1/6 360/1/6 364/1/6
f 361/1/6 362/1/6 365/1/6
f 365/1/6 362/1/6 366/1/6
f 367/1/6 368/1/6 369/1/6
f 369/1/6 368/1/6 370/1/6
f 371/1/6 372/1/6 373/1/6
f 373/1/6 372/1/6 374/1/6
f 374/1/6 372/1/6 375/1/6
f 375/1/6 372/1/6 376/1/6
f 376/1/6 372/1/6 377/1/6
f 377/1/6 372/1/6 378/1/6
f 378/1/6 372/1/6 379/1/6
f 379/1/6 372/1/6 380/1/6
f 380/1/6 372/1/6 381/1/6
f 381/1/6 372/1/6 382/1/6
f 382/1/6 372/1/6 383/1/6
f 383/1/6 372/1/6 384/1/6
f 384/1/6 372/1/6 385/1/6
f 385/1/6 372/1/6 386/1/6
f 374/1/6 375/1/6 387/1/6
f 375/2/6 376/2/6 388/2/6
f 387/1/6 375/1/6 388/1/6
f 388/2/6 376/2/6 389/2/6
f 379/2/6 380/2/6 390/2/6
f 390/2/6 380/2/6 391/2/6
f 380/1/6 381/1/6 392/1/6
f 381/2/6 382/2/6 392/2/6
f 392/2/6 382/2/6 393/2/6
f 393/2/6 382/2/6 394/2/6
f 382/1/6 383/1/6 395/1/6
f 394/2/6 382/2/6 395/2/6
f 383/2/6 384/2/6 396/2/6
f 384/1/6 385/1/6 397/1/6
f 396/2/6 384/2/6 397/2/6
f 385/2/6 386/2/6 398/2/6
f 374/1/6 387/1/6 399/1/6
f 387/2/6 388/2/6 400/2/6
f 399/1/6 387/1/6 400/1/6
f 388/1/6 389/1/6 401/1/6
f 400/2/6 388/2/6 401/2/6
f 373/2/6 374/2/6 402/2/6
f 374/1/6 399/1/6 402/1/6
f 399/2/6 400/2/6 403/2/6
f 402/1/6 399/1/6 403/1/6
f 400/1/6 401/1/6 404/1/6
f 403/2/6 400/2/6 404/2/6
f 376/1/6 377/1/6 405/1/6
f 389/2/6 376/2/6 405/2/6
f 377/2/6 378/2/6 406/2/6
f 405/1/6 377/1/6 406/1/6
f 390/1/6 391/1/6 407/1/6
f 391/2/6 380/2/6 408/2/6
f 407/1/6 391/1/6 408/1/6
f 385/2/6 398/2/6 409/2/6
f 371/1/6 373/1/6 410/1/6
f 410/1/6 373/1/6 411/1/6
f 403/1/6 404/1/6 412/1/6
f 402/2/6 403/2/6 412/2/6
f 401/1/6 389/1/6 413/1/6
f 412/1/6 404/1/6 413/1/6
f 404/1/6 401/1/6 413/1/6
f 389/2/6 405/2/6 414/2/6
f 405/2/6 406/2/6 414/2/6
f 406/2/6 378/2/6 415/2/6
f 414/2/6 406/2/6 415/2/6
f 390/1/6 407/1/6 416/1/6
f 407/2/6 408/2/6 416/2/6
f 380/1/6 392/1/6 417/1/6
f 416/2/6 408/2/6 417/2/6
f 392/1/6 393/1/6 417/1/6
f 408/2/6 380/2/6 417/2/6
f 385/2/6 409/2/6 418/2/6
f 410/2/6 411/2/6 419/2/6
f 411/1/6 373/1/6 420/1/6
f 419/2/6 411/2/6 420/2/6
f 402/2/6 412/2/6 421/2/6
f 373/2/6 402/2/6 421/2/6
f 412/2/6 413/2/6 421/2/6
f 421/2/6 413/2/6 422/2/6
f 389/2/6 414/2/6 423/2/6
f 414/1/6 415/1/6 423/1/6
f 415/2/6 378/2/6 424/2/6
f 423/1/6 415/1/6 424/1/6
f 419/1/6 420/1/6 425/1/6
f 420/1/6 373/1/6 426/1/6
f 425/1/6 420/1/6 426/1/6
f 421/1/6 422/1/6 427/1/6
f 373/2/6 421/2/6 427/2/6
f 422/2/6 413/2/6 428/2/6
f 427/1/6 422/1/6 428/1/6
f 413/1/6 389/1/6 429/1/6
f 389/2/6 423/2/6 429/2/6
f 423/2/6 424/2/6 429/2/6
f 429/2/6 424/2/6 430/2/6
f 424/2/6 378/2/6 431/2/6
f 430/2/6 424/2/6 431/2/6
f 378/1/6 379/1/6 432/1/6
f 431/2/6 378/2/6 432/2/6
f 379/2/6 390/2/6 433/2/6
f 390/1/6 416/1/6 433/1/6
f 416/1/6 417/1/6 433/1/6
f 417/1/6 393/1/6 434/1/6
f 433/1/6 417/1/6 434/1/6
f 434/1/6 393/1/6 435/1/6
f 393/2/6 394/2/6 436/2/6
f 435/1/6 393/1/6 436/1/6
f 394/1/6 395/1/6 437/1/6
f 436/2/6 394/2/6 437/2/6
f 395/1/6 383/1/6 438/1/6
f 437/1/6 395/1/6 438/1/6
f 385/2/6 418/2/6 439/2/6
f 425/2/6 426/2/6 440/2/6
f 426/1/6 373/1/6 441/1/6
f 440/2/6 426/2/6 441/2/6
f 427/2/6 428/2/6 442/2/6
f 441/1/6 373/1/6 442/1/6
f 373/2/6 427/2/6 442/2/6
f 428/2/6 413/2/6 443/2/6
f 442/2/6 428/2/6 443/2/6
f 429/1/6 430/1/6 443/1/6
f 413/1/6 429/1/6 443/1/6
f 430/2/6 431/2/6 444/2/6
f 443/1/6 430/1/6 444/1/6
f 431/1/6 432/1/6 445/1/6
f 444/2/6 431/2/6 445/2/6
f 432/1/6 379/1/6 446/1/6
f 445/1/6 432/1/6 446/1/6
f 379/2/6 433/2/6 446/2/6
f 433/2/6 434/2/6 446/2/6
f 434/1/6 435/1/6 447/1/6
f 446/2/6 434/2/6 447/2/6
f 436/2/6 437/2/6 448/2/6
f 447/1/6 435/1/6 448/1/6
f 437/2/6 438/2/6 448/2/6
f 435/2/6 436/2/6 448/2/6
f 438/1/6 383/1/6 449/1/6
f 448/2/6 438/2/6 449/2/6
f 383/2/6 396/2/6 450/2/6
f 449/1/6 383/1/6 450/1/6
f 396/1/6 397/1/6 451/1/6
f 450/2/6 396/2/6 451/2/6
f 385/2/6 439/2/6 452/2/6
f 451/1/6 397/1/6 452/1/6
f 397/1/6 385/1/6 452/1/6
f 452/2/6 439/2/6 453/2/6
f 441/1/6 442/1/6 454/1/6
f 442/1/6 443/1/6 454/1/6
f 452/1/6 453/1/6 454/1/6
f 451/1/6 452/1/6 454/1/6
f 440/1/6 441/1/6 454/1/6
f 450/1/6 451/1/6 454/1/6
f 443/1/6 444/1/6 454/1/6
f 444/1/6 445/1/6 454/1/6
f 447/1/6 448/1/6 454/1/6
f 445/1/6 446/1/6 454/1/6
f 449/1/6 450/1/6 454/1/6
f 448/1/6 449/1/6 454/1/6
f 446/1/6 447/1/6 454/1/6
f 454/1/6 453/1/6 455/1/6
f 456/1/6 457/1/6 458/1/6
f 458/1/6 457/1/6 459/1/6
f 456/1/6 458/1/6 460/1/6
f 460/1/6 458/1/6 461/1/6
f 459/1/6 457/1/6 462/1/6
f 462/1/6 457/1/6 463/1/6
f 462/2/6 463/2/6 464/2/6
f 464/2/6 463/2/6 465/2/6
f 464/1/6 465/1/6 466/1/6
f 466/1/6 465/1/6 467/1/6
f 461/1/6 458/1/6 468/1/6
f 460/2/6 461/2/6 468/2/6
f 468/1/6 458/1/6 469/1/6
f 466/2/6 467/2/6 470/2/6
f 470/2/6 467/2/6 471/2/6
f 468/2/6 469/2/6 472/2/6
f 460/2/6 468/2/6 472/2/6
f 472/2/6 469/2/6 473/2/6
f 460/2/6 472/2/6 474/2/6
f 472/1/6 473/1/6 474/1/6
f 474/1/6 473/1/6 475/1/6
f 470/1/6 471/1/6 476/1/6
f 476/1/6 471/1/6 477/1/6
f 474/2/6 475/2/6 478/2/6
f 460/2/6 474/2/6 478/2/6
f 478/2/6 475/2/6 479/2/6
f 476/2/6 477/2/6 480/2/6
f 480/2/6 477/2/6 481/2/6
f 478/1/6 479/1/6 482/1/6
f 480/1/6 481/1/6 483/1/6
f 478/1/6 482/1/6 484/1/6
f 482/1/6 483/1/6 484/1/6
f 483/1/6 481/1/6 485/1/6
f 484/1/6 483/1/6 485/1/6
