# MagicaVoxel @ ephtracy

# material
mtllib Spatula.mtl
usemtl palette

# normals
vn -1 0 0
vn 1 0 0
vn 0 0 1
vn 0 0 -1
vn 0 -1 0
vn 0 1 0

# texcoords
vt 0.966797 0.5
vt 0.994141 0.5

# verts
v -3 23 1
v -3 23 -1
v -3 32 1
v -3 32 -1
v -2 0 1
v -2 0 -1
v -2 11 1
v -2 11 -1
v -1 0 2
v -1 0 1
v -1 0 -1
v -1 0 -2
v -1 11 2
v -1 11 1
v -1 11 -1
v -1 11 -2
v -1 24 1
v -1 24 -1
v -1 31 1
v -1 31 -1
v 0 0 3
v 0 0 2
v 0 0 -2
v 0 0 -3
v 0 11 3
v 0 11 2
v 0 11 1
v 0 11 -1
v 0 11 -2
v 0 11 -3
v 0 23 1
v 0 23 -1
v 1 24 1
v 1 24 -1
v 1 31 1
v 1 31 -1
v 3 24 1
v 3 24 -1
v 3 31 1
v 3 31 -1
v 5 24 1
v 5 24 -1
v 5 31 1
v 5 31 -1
v -2 24 1
v -2 24 -1
v -2 31 1
v -2 31 -1
v 0 24 1
v 0 24 -1
v 0 31 1
v 0 31 -1
v 2 24 1
v 2 24 -1
v 2 31 1
v 2 31 -1
v 3 0 3
v 3 0 2
v 3 0 -2
v 3 0 -3
v 3 11 3
v 3 11 2
v 3 11 1
v 3 11 -1
v 3 11 -2
v 3 11 -3
v 3 23 1
v 3 23 -1
v 4 0 2
v 4 0 1
v 4 0 -1
v 4 0 -2
v 4 11 2
v 4 11 1
v 4 11 -1
v 4 11 -2
v 4 24 1
v 4 24 -1
v 4 31 1
v 4 31 -1
v 5 0 1
v 5 0 -1
v 5 11 1
v 5 11 -1
v 6 23 1
v 6 23 -1
v 6 32 1
v 6 32 -1
v 0 0 3
v 0 11 3
v 3 0 3
v 3 11 3
v -1 0 2
v -1 11 2
v 0 0 2
v 0 11 2
v 3 0 2
v 3 11 2
v 4 0 2
v 4 11 2
v -3 23 1
v -3 32 1
v -2 0 1
v -2 11 1
v -2 24 1
v -2 31 1
v -1 0 1
v -1 11 1
v -1 24 1
v -1 31 1
v 0 11 1
v 0 23 1
v 0 24 1
v 0 31 1
v 1 24 1
v 1 31 1
v 2 24 1
v 2 31 1
v 3 11 1
v 3 23 1
v 3 24 1
v 3 31 1
v 4 0 1
v 4 11 1
v 4 24 1
v 4 31 1
v 5 0 1
v 5 11 1
v 5 24 1
v 5 31 1
v 6 23 1
v 6 32 1
v -3 23 -1
v -3 32 -1
v -2 0 -1
v -2 11 -1
v -2 24 -1
v -2 31 -1
v -1 0 -1
v -1 11 -1
v -1 24 -1
v -1 31 -1
v 0 11 -1
v 0 23 -1
v 0 24 -1
v 0 31 -1
v 1 24 -1
v 1 31 -1
v 2 24 -1
v 2 31 -1
v 3 11 -1
v 3 23 -1
v 3 24 -1
v 3 31 -1
v 4 0 -1
v 4 11 -1
v 4 24 -1
v 4 31 -1
v 5 0 -1
v 5 11 -1
v 5 24 -1
v 5 31 -1
v 6 23 -1
v 6 32 -1
v -1 0 -2
v -1 11 -2
v 0 0 -2
v 0 11 -2
v 3 0 -2
v 3 11 -2
v 4 0 -2
v 4 11 -2
v 0 0 -3
v 0 11 -3
v 3 0 -3
v 3 11 -3
v 0 0 3
v 3 0 3
v -1 0 2
v 0 0 2
v 3 0 2
v 4 0 2
v -2 0 1
v -1 0 1
v 4 0 1
v 5 0 1
v -2 0 -1
v -1 0 -1
v 4 0 -1
v 5 0 -1
v -1 0 -2
v 0 0 -2
v 3 0 -2
v 4 0 -2
v 0 0 -3
v 3 0 -3
v -3 23 1
v 0 23 1
v 3 23 1
v 6 23 1
v -3 23 -1
v 0 23 -1
v 3 23 -1
v 6 23 -1
v -2 31 1
v -1 31 1
v 0 31 1
v 1 31 1
v 2 31 1
v 3 31 1
v 4 31 1
v 5 31 1
v -2 31 -1
v -1 31 -1
v 0 31 -1
v 1 31 -1
v 2 31 -1
v 3 31 -1
v 4 31 -1
v 5 31 -1
v 0 11 3
v 3 11 3
v -1 11 2
v 0 11 2
v 3 11 2
v 4 11 2
v -2 11 1
v -1 11 1
v 0 11 1
v 3 11 1
v 4 11 1
v 5 11 1
v -2 11 -1
v -1 11 -1
v 0 11 -1
v 3 11 -1
v 4 11 -1
v 5 11 -1
v -1 11 -2
v 0 11 -2
v 3 11 -2
v 4 11 -2
v 0 11 -3
v 3 11 -3
v -2 24 1
v -1 24 1
v 0 24 1
v 1 24 1
v 2 24 1
v 3 24 1
v 4 24 1
v 5 24 1
v -2 24 -1
v -1 24 -1
v 0 24 -1
v 1 24 -1
v 2 24 -1
v 3 24 -1
v 4 24 -1
v 5 24 -1
v -3 32 1
v 6 32 1
v -3 32 -1
v 6 32 -1

# faces
f 3/1/1 2/1/1 1/1/1
f 4/1/1 2/1/1 3/1/1
f 7/2/1 6/2/1 5/2/1
f 8/2/1 6/2/1 7/2/1
f 13/2/1 10/2/1 9/2/1
f 14/2/1 10/2/1 13/2/1
f 15/2/1 12/2/1 11/2/1
f 16/2/1 12/2/1 15/2/1
f 19/1/1 18/1/1 17/1/1
f 20/1/1 18/1/1 19/1/1
f 25/2/1 22/2/1 21/2/1
f 26/2/1 22/2/1 25/2/1
f 29/2/1 24/2/1 23/2/1
f 30/2/1 24/2/1 29/2/1
f 31/1/1 28/1/1 27/1/1
f 32/1/1 28/1/1 31/1/1
f 35/1/1 34/1/1 33/1/1
f 36/1/1 34/1/1 35/1/1
f 39/1/1 38/1/1 37/1/1
f 40/1/1 38/1/1 39/1/1
f 43/1/1 42/1/1 41/1/1
f 44/1/1 42/1/1 43/1/1
f 45/1/2 46/1/2 47/1/2
f 47/1/2 46/1/2 48/1/2
f 49/1/2 50/1/2 51/1/2
f 51/1/2 50/1/2 52/1/2
f 53/1/2 54/1/2 55/1/2
f 55/1/2 54/1/2 56/1/2
f 57/2/2 58/2/2 61/2/2
f 61/2/2 58/2/2 62/2/2
f 59/2/2 60/2/2 65/2/2
f 65/2/2 60/2/2 66/2/2
f 63/1/2 64/1/2 67/1/2
f 67/1/2 64/1/2 68/1/2
f 69/2/2 70/2/2 73/2/2
f 73/2/2 70/2/2 74/2/2
f 71/2/2 72/2/2 75/2/2
f 75/2/2 72/2/2 76/2/2
f 77/1/2 78/1/2 79/1/2
f 79/1/2 78/1/2 80/1/2
f 81/2/2 82/2/2 83/2/2
f 83/2/2 82/2/2 84/2/2
f 85/1/2 86/1/2 87/1/2
f 87/1/2 86/1/2 88/1/2
f 91/2/3 90/2/3 89/2/3
f 92/2/3 90/2/3 91/2/3
f 95/2/3 94/2/3 93/2/3
f 96/2/3 94/2/3 95/2/3
f 99/2/3 98/2/3 97/2/3
f 100/2/3 98/2/3 99/2/3
f 105/1/3 102/1/3 101/1/3
f 106/1/3 102/1/3 105/1/3
f 107/2/3 104/2/3 103/2/3
f 108/2/3 104/2/3 107/2/3
f 109/1/3 105/1/3 101/1/3
f 110/1/3 102/1/3 106/1/3
f 112/1/3 109/1/3 101/1/3
f 112/1/3 110/1/3 109/1/3
f 113/1/3 110/1/3 112/1/3
f 114/1/3 102/1/3 110/1/3
f 114/1/3 110/1/3 113/1/3
f 115/1/3 113/1/3 112/1/3
f 115/1/3 112/1/3 111/1/3
f 116/1/3 102/1/3 114/1/3
f 117/1/3 115/1/3 111/1/3
f 117/1/3 116/1/3 115/1/3
f 118/1/3 102/1/3 116/1/3
f 118/1/3 116/1/3 117/1/3
f 119/1/3 117/1/3 111/1/3
f 120/1/3 117/1/3 119/1/3
f 121/1/3 117/1/3 120/1/3
f 122/1/3 102/1/3 118/1/3
f 125/1/3 121/1/3 120/1/3
f 125/1/3 122/1/3 121/1/3
f 126/1/3 102/1/3 122/1/3
f 126/1/3 122/1/3 125/1/3
f 127/2/3 124/2/3 123/2/3
f 128/2/3 124/2/3 127/2/3
f 129/1/3 125/1/3 120/1/3
f 130/1/3 102/1/3 126/1/3
f 131/1/3 129/1/3 120/1/3
f 131/1/3 130/1/3 129/1/3
f 132/1/3 102/1/3 130/1/3
f 132/1/3 130/1/3 131/1/3
f 133/1/4 134/1/4 137/1/4
f 137/1/4 134/1/4 138/1/4
f 135/2/4 136/2/4 139/2/4
f 139/2/4 136/2/4 140/2/4
f 133/1/4 137/1/4 141/1/4
f 138/1/4 134/1/4 142/1/4
f 133/1/4 141/1/4 144/1/4
f 141/1/4 142/1/4 144/1/4
f 144/1/4 142/1/4 145/1/4
f 142/1/4 134/1/4 146/1/4
f 145/1/4 142/1/4 146/1/4
f 144/1/4 145/1/4 147/1/4
f 143/1/4 144/1/4 147/1/4
f 146/1/4 134/1/4 148/1/4
f 143/1/4 147/1/4 149/1/4
f 147/1/4 148/1/4 149/1/4
f 148/1/4 134/1/4 150/1/4
f 149/1/4 148/1/4 150/1/4
f 143/1/4 149/1/4 151/1/4
f 151/1/4 149/1/4 152/1/4
f 152/1/4 149/1/4 153/1/4
f 150/1/4 134/1/4 154/1/4
f 152/1/4 153/1/4 157/1/4
f 153/1/4 154/1/4 157/1/4
f 154/1/4 134/1/4 158/1/4
f 157/1/4 154/1/4 158/1/4
f 155/2/4 156/2/4 159/2/4
f 159/2/4 156/2/4 160/2/4
f 152/1/4 157/1/4 161/1/4
f 158/1/4 134/1/4 162/1/4
f 152/1/4 161/1/4 163/1/4
f 161/1/4 162/1/4 163/1/4
f 162/1/4 134/1/4 164/1/4
f 163/1/4 162/1/4 164/1/4
f 165/2/4 166/2/4 167/2/4
f 167/2/4 166/2/4 168/2/4
f 169/2/4 170/2/4 171/2/4
f 171/2/4 170/2/4 172/2/4
f 173/2/4 174/2/4 175/2/4
f 175/2/4 174/2/4 176/2/4
f 180/2/5 178/2/5 177/2/5
f 181/2/5 178/2/5 180/2/5
f 184/2/5 180/2/5 179/2/5
f 184/2/5 182/2/5 181/2/5
f 184/2/5 181/2/5 180/2/5
f 185/2/5 182/2/5 184/2/5
f 187/2/5 184/2/5 183/2/5
f 187/2/5 186/2/5 185/2/5
f 187/2/5 185/2/5 184/2/5
f 188/2/5 186/2/5 187/2/5
f 189/2/5 186/2/5 188/2/5
f 190/2/5 186/2/5 189/2/5
f 191/2/5 189/2/5 188/2/5
f 192/2/5 189/2/5 191/2/5
f 193/2/5 189/2/5 192/2/5
f 194/2/5 189/2/5 193/2/5
f 195/2/5 193/2/5 192/2/5
f 196/2/5 193/2/5 195/2/5
f 201/1/5 198/1/5 197/1/5
f 202/1/5 198/1/5 201/1/5
f 203/1/5 200/1/5 199/1/5
f 204/1/5 200/1/5 203/1/5
f 213/1/5 206/1/5 205/1/5
f 214/1/5 206/1/5 213/1/5
f 215/1/5 208/1/5 207/1/5
f 216/1/5 208/1/5 215/1/5
f 217/1/5 210/1/5 209/1/5
f 218/1/5 210/1/5 217/1/5
f 219/1/5 212/1/5 211/1/5
f 220/1/5 212/1/5 219/1/5
f 221/2/6 222/2/6 224/2/6
f 224/2/6 222/2/6 225/2/6
f 223/2/6 224/2/6 228/2/6
f 225/2/6 226/2/6 228/2/6
f 224/2/6 225/2/6 228/2/6
f 228/2/6 226/2/6 229/2/6
f 229/2/6 226/2/6 230/2/6
f 230/2/6 226/2/6 231/2/6
f 227/2/6 228/2/6 233/2/6
f 228/2/6 229/2/6 233/2/6
f 233/2/6 229/2/6 234/2/6
f 234/2/6 229/2/6 235/2/6
f 231/2/6 232/2/6 236/2/6
f 230/2/6 231/2/6 236/2/6
f 236/2/6 232/2/6 237/2/6
f 237/2/6 232/2/6 238/2/6
f 234/2/6 235/2/6 239/2/6
f 236/2/6 237/2/6 239/2/6
f 235/2/6 236/2/6 239/2/6
f 239/2/6 237/2/6 240/2/6
f 240/2/6 237/2/6 241/2/6
f 241/2/6 237/2/6 242/2/6
f 240/2/6 241/2/6 243/2/6
f 243/2/6 241/2/6 244/2/6
f 245/1/6 246/1/6 253/1/6
f 253/1/6 246/1/6 254/1/6
f 247/1/6 248/1/6 255/1/6
f 255/1/6 248/1/6 256/1/6
f 249/1/6 250/1/6 257/1/6
f 257/1/6 250/1/6 258/1/6
f 251/1/6 252/1/6 259/1/6
f 259/1/6 252/1/6 260/1/6
f 261/1/6 262/1/6 263/1/6
f 263/1/6 262/1/6 264/1/6
